<svg width="19" height="31" viewBox="0 0 19 31" fill="none" xmlns="http://www.w3.org/2000/svg">
<path d="M7.34568 0C7.60195 0.0896451 7.81947 0.26492 7.96156 0.49627C8.10365 0.727619 8.16161 1.00089 8.12568 1.27V10.02C8.16928 10.5658 8.04144 11.1116 7.75999 11.5813C7.47855 12.0509 7.05754 12.4211 6.55568 12.64C6.11433 12.7904 5.6633 12.9106 5.20568 13C5.19546 13.3055 5.22232 13.611 5.28568 13.91C5.50568 15.84 5.71568 17.76 5.92568 19.69C6.13568 21.62 6.35568 23.4 6.55568 25.26C6.64568 26.03 6.76568 26.8 6.78568 27.58C6.78717 28.2413 6.54767 28.8805 6.11199 29.3781C5.67632 29.8756 5.0743 30.1973 4.41857 30.2831C3.76283 30.3689 3.0983 30.2129 2.54929 29.8442C2.00027 29.4755 1.60438 28.9194 1.43568 28.28C1.30576 27.6197 1.30576 26.9403 1.43568 26.28C1.57568 24.95 1.73568 23.63 1.88568 22.28L2.33568 18.23C2.47568 16.92 2.62568 15.61 2.76568 14.3C2.81568 13.83 2.86568 13.37 2.91568 12.95C2.46717 12.887 2.02534 12.7832 1.59568 12.64C1.10625 12.429 0.6928 12.0738 0.410494 11.6218C0.128189 11.1697 -0.00954236 10.6424 0.0156789 10.11V1.28C-0.0293794 1.00991 0.0234149 0.732603 0.164566 0.497963C0.305716 0.263323 0.52596 0.0867483 0.785679 0H1.31568C1.56855 0.11738 1.77698 0.31294 1.91023 0.55782C2.04347 0.8027 2.09446 1.08393 2.05568 1.36V6.64H3.05568V1.35C3.01246 1.07483 3.06164 0.793095 3.19552 0.54884C3.32941 0.304586 3.54046 0.111581 3.79568 0H4.33568C4.5899 0.106636 4.80252 0.293099 4.94143 0.531227C5.08034 0.769356 5.13799 1.04622 5.10568 1.32V6.64H6.10568V1.29C6.06097 1.02129 6.11143 0.745411 6.24834 0.50992C6.38525 0.274429 6.60005 0.0940909 6.85568 0H7.34568Z" fill="url(#paint0_linear_389_42)"/>
<path d="M17.2956 16.88C17.5756 19 17.8656 21.11 18.1456 23.21C18.3256 24.56 18.5156 25.9 18.6856 27.21C18.7734 27.9166 18.5774 28.6292 18.1406 29.1915C17.7038 29.7539 17.0619 30.1201 16.3556 30.21C15.6638 30.295 14.9665 30.103 14.4157 29.6759C13.865 29.2488 13.5054 28.6212 13.4156 27.93C13.3821 27.361 13.4191 26.79 13.5256 26.23C13.7456 24.5 13.9756 22.78 14.2156 21.05C14.3956 19.65 14.5856 18.25 14.7656 16.9C14.3089 16.7818 13.8611 16.6314 13.4256 16.45C13.0912 16.2815 12.8108 16.0225 12.6163 15.7026C12.4219 15.3826 12.3211 15.0144 12.3256 14.64C12.3256 12.24 12.1956 9.83999 12.3256 7.45999C12.4148 5.9907 12.8886 4.57066 13.6994 3.34212C14.5103 2.11358 15.6297 1.11968 16.9456 0.459988C17.109 0.359055 17.3056 0.326598 17.4928 0.369651C17.68 0.412705 17.8427 0.5278 17.9456 0.689988C18.0168 0.811329 18.0547 0.949302 18.0556 1.08999V15.88C18.0754 15.9961 18.0711 16.115 18.0431 16.2293C18.015 16.3437 17.9638 16.4511 17.8925 16.5449C17.8213 16.6386 17.7315 16.7167 17.6288 16.7744C17.5262 16.832 17.4127 16.868 17.2956 16.88V16.88Z" fill="url(#paint1_linear_389_42)"/>
<defs>
<linearGradient id="paint0_linear_389_42" x1="0.217471" y1="17" x2="6.9818" y2="16.8102" gradientUnits="userSpaceOnUse">
<stop stop-color="#5B308E"/>
<stop offset="0.740728" stop-color="#B22854"/>
<stop offset="1" stop-color="#E9232F"/>
</linearGradient>
<linearGradient id="paint1_linear_389_42" x1="12.4399" y1="17.1113" x2="17.7942" y2="16.9907" gradientUnits="userSpaceOnUse">
<stop stop-color="#5B308E"/>
<stop offset="0.740728" stop-color="#B22854"/>
<stop offset="1" stop-color="#E9232F"/>
</linearGradient>
</defs>
</svg>
