<svg width="27" height="31" viewBox="0 0 27 31" fill="none" xmlns="http://www.w3.org/2000/svg">
<path d="M17.0905 0C17.4301 0.0937903 17.764 0.207317 18.0905 0.34C18.808 0.689519 19.3777 1.28304 19.6975 2.01429C20.0173 2.74553 20.0664 3.56675 19.8359 4.33088C19.6055 5.09501 19.1105 5.75215 18.4397 6.18463C17.7689 6.61711 16.9661 6.79669 16.175 6.69121C15.3838 6.58572 14.6561 6.20207 14.122 5.60894C13.588 5.01581 13.2825 4.25195 13.2603 3.45413C13.2381 2.65632 13.5007 1.87665 14.0009 1.25474C14.5011 0.632838 15.2064 0.20931 15.9905 0.06L16.1505 0H17.0905Z" fill="url(#paint0_linear_389_43)"/>
<path d="M17.0305 20.72L16.8405 21.05L12.5905 29.11C12.4203 29.4752 12.1253 29.7676 11.7586 29.9344C11.3919 30.1013 10.9776 30.1316 10.5905 30.02C10.18 29.8991 9.83347 29.6216 9.62579 29.2474C9.41812 28.8732 9.36593 28.4323 9.48051 28.02C9.48051 27.93 9.55051 27.84 9.59051 27.75C10.2805 26.41 11.0305 25.11 11.7605 23.75L14.4405 18.86C14.4925 18.8044 14.5215 18.7311 14.5215 18.655C14.5215 18.5789 14.4925 18.5056 14.4405 18.45C14.0997 17.9681 13.921 17.3902 13.9305 16.8C13.8105 15.42 13.6905 14.04 13.5605 12.6L13.3805 12.83C12.5591 13.9388 11.8648 15.1363 11.3105 16.4C11.2405 16.6369 11.1123 16.8525 10.9377 17.0272C10.763 17.2018 10.5474 17.33 10.3105 17.4C10.2305 17.4 10.1605 17.52 10.1105 17.6C8.17051 21.01 6.22051 24.42 4.29051 27.83C4.26594 27.878 4.25313 27.9311 4.25313 27.985C4.25313 28.0389 4.26594 28.092 4.29051 28.14C4.43378 28.3987 4.48604 28.698 4.43889 28.99C4.39174 29.2819 4.24793 29.5496 4.03051 29.75C3.81331 29.9512 3.53349 30.0716 3.23804 30.0909C2.94258 30.1103 2.64947 30.0274 2.4079 29.8562C2.16633 29.6849 1.99101 29.4358 1.91137 29.1507C1.83173 28.8655 1.85261 28.5616 1.97051 28.29V28.15L0.500512 27.31C-0.0594884 27 -0.129488 26.75 0.190512 26.2C1.54051 23.81 2.89051 21.41 4.25051 19.02C4.54051 18.5 4.80051 18.42 5.32051 18.72L7.38051 19.87C7.43051 19.79 7.49051 19.72 7.53051 19.65L8.88051 17.25C8.92928 17.1909 8.95595 17.1166 8.95595 17.04C8.95595 16.9634 8.92928 16.8891 8.88051 16.83C8.74805 16.6466 8.66786 16.4306 8.64849 16.2052C8.62911 15.9798 8.67129 15.7533 8.77051 15.55C9.52953 13.7716 10.5398 12.1114 11.7705 10.62C12.4945 9.69444 13.2656 8.80661 14.0805 7.96001C14.6443 7.35966 15.4166 6.99813 16.2387 6.94977C17.0609 6.90141 17.8703 7.16989 18.5005 7.70001C19.2605 8.29001 19.9605 8.95001 20.7105 9.54001C21.788 10.4781 23.0629 11.1617 24.4405 11.54C24.6905 11.6 24.9605 11.64 25.2105 11.69C25.5298 11.7673 25.8083 11.9617 25.991 12.2347C26.1737 12.5077 26.2471 12.8393 26.1968 13.1639C26.1465 13.4885 25.976 13.7824 25.7193 13.9872C25.4625 14.1921 25.1382 14.293 24.8105 14.27C23.3821 14.167 21.9932 13.7541 20.7405 13.06C20.4105 12.87 20.1005 12.65 19.7405 12.42V12.55C19.8505 13.84 19.9605 15.14 20.0805 16.44C20.1813 17.0627 20.038 17.7003 19.6805 18.22C19.6374 18.272 19.6138 18.3375 19.6138 18.405C19.6138 18.4726 19.6374 18.538 19.6805 18.59C21.3982 21.4905 22.9313 24.4965 24.2705 27.59C24.3874 27.7758 24.4665 27.9828 24.5034 28.1992C24.5403 28.4157 24.5341 28.6372 24.4854 28.8512C24.4366 29.0653 24.3462 29.2676 24.2193 29.4467C24.0923 29.6258 23.9313 29.7781 23.7455 29.895C23.3702 30.131 22.9166 30.2083 22.4843 30.1099C22.052 30.0114 21.6766 29.7453 21.4405 29.37L21.3505 29.2C21.1305 28.78 20.9405 28.34 20.7405 27.9C19.6868 25.5341 18.505 23.2274 17.2005 20.99L17.0305 20.72ZM3.52051 28.84C3.52184 28.7822 3.51177 28.7247 3.49088 28.6708C3.46998 28.617 3.43868 28.5677 3.39874 28.5259C3.35881 28.4841 3.31104 28.4506 3.25815 28.4273C3.20526 28.404 3.1483 28.3913 3.09051 28.39V28.39C2.98143 28.4062 2.88181 28.4611 2.80979 28.5446C2.73777 28.6281 2.69815 28.7347 2.69815 28.845C2.69815 28.9553 2.73777 29.0619 2.80979 29.1454C2.88181 29.2289 2.98143 29.2838 3.09051 29.3C3.14829 29.3 3.20551 29.2886 3.25889 29.2665C3.31228 29.2444 3.36078 29.212 3.40164 29.1711C3.4425 29.1303 3.47491 29.0818 3.49702 29.0284C3.51913 28.975 3.53051 28.9178 3.53051 28.86L3.52051 28.84Z" fill="url(#paint1_linear_389_43)"/>
<defs>
<linearGradient id="paint0_linear_389_43" x1="13.0027" y1="5.01517" x2="19.7688" y2="4.13416" gradientUnits="userSpaceOnUse">
<stop stop-color="#5B308E"/>
<stop offset="1" stop-color="#E9232F"/>
</linearGradient>
<linearGradient id="paint1_linear_389_43" x1="-1" y1="24.2622" x2="25.2713" y2="20.3982" gradientUnits="userSpaceOnUse">
<stop stop-color="#5B308E"/>
<stop offset="1" stop-color="#E9232F"/>
</linearGradient>
</defs>
</svg>
