<svg width="35" height="32" viewBox="0 0 35 32" fill="none" xmlns="http://www.w3.org/2000/svg">
<path d="M0.0273308 12.185C0.0962289 11.0503 0.31824 9.93015 0.687331 8.85497C1.57033 6.42474 3.13315 4.29947 5.18972 2.73222C7.24629 1.16498 9.70994 0.221793 12.2873 0.0149718C14.8681 -0.106842 17.4295 0.516704 19.6655 1.81115C21.9015 3.10561 23.7178 5.01626 24.8973 7.31497C24.7509 7.41782 24.5763 7.473 24.3973 7.473C24.2184 7.473 24.0438 7.41782 23.8973 7.31497C23.6064 7.07907 23.3622 6.79077 23.1773 6.46497C21.9931 4.73808 20.3882 3.34153 18.5143 2.40719C16.6403 1.47285 14.5592 1.03155 12.4673 1.12497C10.3914 1.26811 8.3856 1.9347 6.63696 3.06258C4.88832 4.19045 3.45384 5.74285 2.46733 7.57497C1.51478 9.43187 1.05161 11.501 1.1216 13.5868C1.19159 15.6726 1.79244 17.7061 2.86733 19.495C3.97916 21.2604 5.52147 22.7143 7.34941 23.7201C9.17736 24.726 11.2309 25.2507 13.3173 25.245V26.355C12.5172 26.3399 11.7189 26.2731 10.9273 26.155C10.1235 26.0109 9.33383 25.7967 8.56733 25.515C7.02561 24.9468 5.60182 24.0993 4.36733 23.015C2.20983 21.0485 0.758665 18.4273 0.237331 15.555C0.0258344 14.4449 -0.0447232 13.3127 0.0273308 12.185V12.185Z" fill="url(#paint0_linear_389_45)"/>
<path d="M22.5573 7.70497C22.054 8.07663 21.57 8.47382 21.1073 8.89497C20.5197 9.53994 20.1674 10.3645 20.1073 11.235C19.8773 12.7473 20.0075 14.2925 20.4873 15.745C20.7202 16.4475 21.1061 17.0897 21.6173 17.625C21.7511 17.75 21.8479 17.9094 21.8973 18.0858C21.9467 18.2621 21.9467 18.4486 21.8973 18.625C21.8417 18.9687 21.7095 19.2954 21.5104 19.5811C21.3113 19.8667 21.0505 20.1039 20.7473 20.275C20.5645 19.7806 20.2094 19.3687 19.7473 19.115C19.6952 19.0771 19.636 19.0501 19.5732 19.0356C19.5104 19.0212 19.4453 19.0195 19.3819 19.0307C19.3184 19.0419 19.2579 19.0657 19.2038 19.1008C19.1498 19.1359 19.1034 19.1815 19.0673 19.235C18.9767 19.3329 18.9263 19.4615 18.9263 19.595C18.9263 19.7284 18.9767 19.857 19.0673 19.955C19.2973 20.245 19.5573 20.515 19.8273 20.815L18.4773 21.425C17.3573 21.945 16.2173 22.425 15.1173 22.995C14.7126 23.2617 14.3342 23.5664 13.9873 23.905C13.8886 24.0045 13.7572 24.0649 13.6173 24.075C11.7024 24.1537 9.80052 23.7262 8.10351 22.8355C6.40651 21.9448 4.97436 20.6223 3.95148 19.0016C2.9286 17.3808 2.35115 15.5189 2.27737 13.6038C2.20359 11.6887 2.63607 9.78792 3.53122 8.09324C4.42637 6.39857 5.75253 4.96987 7.37597 3.95123C8.99942 2.93258 10.8627 2.35999 12.7781 2.2912C14.6934 2.22242 16.593 2.65986 18.2854 3.55943C19.9777 4.45899 21.4029 5.78887 22.4173 7.41497L22.5573 7.70497ZM11.6073 13.205C11.6178 13.3699 11.655 13.532 11.7173 13.685C11.8285 14.0164 12.0528 14.2981 12.3507 14.481C12.6487 14.6638 13.0015 14.736 13.3473 14.685C13.7189 14.6397 14.0583 14.4515 14.2935 14.1603C14.5287 13.8691 14.6413 13.4978 14.6073 13.125C14.5881 12.9831 14.6088 12.8388 14.6671 12.7081C14.7254 12.5773 14.819 12.4655 14.9373 12.385C15.6873 11.765 16.4273 11.115 17.1673 10.475L18.7973 9.07497C18.861 9.03614 18.9162 8.98499 18.9599 8.92452C19.0035 8.86405 19.0346 8.79547 19.0514 8.72282C19.0681 8.65017 19.0702 8.5749 19.0575 8.50143C19.0448 8.42796 19.0175 8.35777 18.9773 8.29497L18.9273 8.23497C18.826 8.12527 18.6864 8.05885 18.5374 8.04954C18.3883 8.04022 18.2415 8.08873 18.1273 8.18497L18.0773 8.23497L17.7973 8.48497C16.5373 9.55497 15.2973 10.635 14.0373 11.695C13.9124 11.7645 13.7699 11.7958 13.6273 11.785C13.3281 11.755 13.0266 11.755 12.7273 11.785C12.6491 11.8052 12.567 11.8057 12.4885 11.7865C12.41 11.7673 12.3374 11.729 12.2773 11.675L9.92733 9.67497C9.52733 9.33497 9.17733 9.31497 8.92733 9.60497C8.67733 9.89497 8.76733 10.215 9.14733 10.535L11.1773 12.315C11.4773 12.525 11.8573 12.725 11.6073 13.205V13.205ZM12.5473 3.72497V4.13497C12.547 4.28476 12.6036 4.42907 12.7058 4.53863C12.8079 4.6482 12.9479 4.71481 13.0973 4.72497C13.2415 4.7285 13.3818 4.67822 13.4908 4.58393C13.5999 4.48964 13.67 4.3581 13.6873 4.21497C13.7173 3.88231 13.7173 3.54763 13.6873 3.21497C13.6722 3.07067 13.6006 2.9382 13.4882 2.84642C13.3758 2.75464 13.2317 2.71098 13.0873 2.72497C12.944 2.73007 12.8081 2.78996 12.7076 2.89228C12.6072 2.99461 12.5498 3.13159 12.5473 3.27497C12.5473 3.43497 12.5573 3.58497 12.5473 3.72497V3.72497ZM3.63733 13.725C4.11733 13.725 4.69733 13.725 4.63733 13.075C4.63464 12.9996 4.61423 12.9259 4.57775 12.8599C4.54126 12.7938 4.48973 12.7374 4.42733 12.695C4.34195 12.6443 4.24624 12.6135 4.14733 12.605C3.87769 12.585 3.60696 12.585 3.33733 12.605C3.19171 12.6073 3.04837 12.6415 2.91733 12.705C2.8317 12.7513 2.76018 12.8199 2.71034 12.9035C2.6605 12.9871 2.63418 13.0826 2.63418 13.18C2.63418 13.2773 2.6605 13.3728 2.71034 13.4565C2.76018 13.5401 2.8317 13.6087 2.91733 13.655C3.05991 13.7144 3.21286 13.745 3.36733 13.745L3.63733 13.725ZM6.08733 5.55497C5.92733 5.68497 5.70733 5.78497 5.64733 5.94497C5.61576 6.04165 5.60392 6.14369 5.6125 6.24504C5.62109 6.34638 5.64994 6.44497 5.69733 6.53497C5.89598 6.8002 6.12788 7.03882 6.38733 7.24497C6.49952 7.34196 6.64509 7.3914 6.79314 7.3828C6.9412 7.37421 7.08007 7.30825 7.18028 7.19893C7.28049 7.08961 7.33415 6.94553 7.32986 6.79729C7.32558 6.64905 7.26369 6.50832 7.15733 6.40497C6.96347 6.18274 6.75643 5.97236 6.53733 5.77497C6.39559 5.68581 6.24473 5.61206 6.08733 5.55497V5.55497ZM12.5473 22.655V23.095C12.5511 23.2356 12.6067 23.3699 12.7036 23.472C12.8004 23.5741 12.9316 23.6368 13.0719 23.6479C13.2121 23.6591 13.3516 23.618 13.4634 23.5325C13.5751 23.4471 13.6513 23.3233 13.6773 23.185C13.7173 22.8328 13.7173 22.4772 13.6773 22.125C13.6675 22.056 13.6442 21.9897 13.6087 21.9297C13.5733 21.8698 13.5263 21.8174 13.4706 21.7756C13.4149 21.7338 13.3515 21.7034 13.284 21.6861C13.2165 21.6689 13.1463 21.6651 13.0773 21.675V21.675C12.9411 21.6825 12.8128 21.7414 12.7181 21.8397C12.6235 21.938 12.5696 22.0685 12.5673 22.205C12.5473 22.355 12.5573 22.505 12.5473 22.655ZM20.7573 6.16497C20.647 5.99295 20.516 5.83511 20.3673 5.69497C20.2719 5.63279 20.1579 5.60576 20.0447 5.61853C19.9316 5.63131 19.8264 5.68308 19.7473 5.76497C19.5273 5.96497 19.3173 6.17497 19.1173 6.39497C19.0638 6.44797 19.0213 6.51105 18.9923 6.58056C18.9633 6.65008 18.9484 6.72465 18.9484 6.79997C18.9484 6.87529 18.9633 6.94986 18.9923 7.01937C19.0213 7.08889 19.0638 7.15197 19.1173 7.20497C19.2228 7.29644 19.3577 7.34679 19.4973 7.34679C19.6369 7.34679 19.7719 7.29644 19.8773 7.20497C20.0988 7.0137 20.3061 6.80648 20.4973 6.58497C20.6002 6.45568 20.6875 6.31471 20.7573 6.16497V6.16497ZM6.05733 20.775C6.13205 20.7994 6.21261 20.7994 6.28733 20.775C6.36394 20.7398 6.43214 20.6887 6.48733 20.625L7.03733 20.065C7.18571 19.9442 7.2852 19.7736 7.31733 19.585C7.31783 19.4984 7.29713 19.4131 7.25703 19.3364C7.21694 19.2597 7.15867 19.194 7.08733 19.145C7.03002 19.0956 6.96315 19.0585 6.89088 19.0362C6.81861 19.0138 6.74251 19.0066 6.66733 19.015C6.55384 19.0436 6.4502 19.1023 6.36733 19.185C6.22356 19.3002 6.08665 19.4237 5.95733 19.555C5.8103 19.6821 5.69694 19.8435 5.62733 20.025C5.59679 20.1808 5.62345 20.3424 5.70243 20.4802C5.78142 20.6179 5.90742 20.7226 6.05733 20.775V20.775Z" fill="url(#paint1_linear_389_45)"/>
<path d="M14.4173 31.015V26.075C14.4016 25.6624 14.5055 25.254 14.7167 24.8991C14.9278 24.5443 15.2372 24.258 15.6073 24.075C16.6773 23.515 17.7973 23.075 18.9073 22.545C19.8782 22.1523 20.7955 21.6382 21.6373 21.015C22.1936 20.6403 22.6207 20.1032 22.8605 19.4768C23.1004 18.8505 23.1411 18.1654 22.9773 17.515C22.9442 17.3712 22.8714 17.2396 22.7673 17.135C22.2882 16.6785 21.9045 16.1314 21.6384 15.5254C21.3723 14.9195 21.2292 14.2667 21.2173 13.605C21.1707 12.8312 21.1941 12.0547 21.2873 11.285C21.3747 10.5823 21.6985 9.93026 22.2055 9.43596C22.7125 8.94165 23.3726 8.63452 24.0773 8.56504C24.811 8.46059 25.5591 8.55023 26.2473 8.82504C26.7599 9.02324 27.2081 9.35841 27.5432 9.79399C27.8783 10.2296 28.0872 10.7488 28.1473 11.295C28.3821 12.6551 28.2826 14.052 27.8573 15.365C27.6692 15.9851 27.3249 16.5464 26.8573 16.995C26.6998 17.1348 26.575 17.3077 26.4921 17.5014C26.4091 17.695 26.3699 17.9045 26.3773 18.115C26.3316 18.6699 26.4279 19.2272 26.6571 19.7345C26.8863 20.2419 27.2408 20.6826 27.6873 21.015C28.5071 21.6255 29.4052 22.1233 30.3573 22.495C31.4673 22.985 32.5873 23.495 33.6773 24.015C34.0866 24.2019 34.4298 24.5082 34.6618 24.8937C34.8939 25.2792 35.0038 25.7259 34.9773 26.175V31.015H14.4173Z" fill="url(#paint2_linear_389_45)"/>
<defs>
<linearGradient id="paint0_linear_389_45" x1="12.4487" y1="0" x2="12.4487" y2="26.355" gradientUnits="userSpaceOnUse">
<stop stop-color="#5B308E"/>
<stop offset="1" stop-color="#E9232F"/>
</linearGradient>
<linearGradient id="paint1_linear_389_45" x1="12.4133" y1="2.28418" x2="12.4133" y2="24.0842" gradientUnits="userSpaceOnUse">
<stop stop-color="#5B308E"/>
<stop offset="1" stop-color="#E9232F"/>
</linearGradient>
<linearGradient id="paint2_linear_389_45" x1="24.6985" y1="8.52271" x2="24.6985" y2="31.015" gradientUnits="userSpaceOnUse">
<stop stop-color="#5B308E"/>
<stop offset="1" stop-color="#E9232F"/>
</linearGradient>
</defs>
</svg>
