<svg width="34" height="31" viewBox="0 0 34 31" fill="none" xmlns="http://www.w3.org/2000/svg">
<path d="M33.58 22.8536C33.4302 23.2794 33.2428 23.691 33.02 24.0836C32.7425 24.4752 32.3681 24.7881 31.9333 24.9914C31.4986 25.1948 31.0185 25.2817 30.54 25.2436H20.96C20.9331 26.5076 21.2586 27.7541 21.9 28.8436C22.0237 29.0172 22.1852 29.1604 22.3722 29.2626C22.5593 29.3648 22.7671 29.4233 22.98 29.4336C23.57 29.4336 23.9 29.8936 23.71 30.3636C23.6086 30.5469 23.4556 30.6964 23.27 30.7936C23.1385 30.8531 22.9929 30.8739 22.85 30.8536H10.67C10.16 30.8536 9.89001 30.6936 9.79001 30.3336C9.73639 30.1652 9.75149 29.9824 9.83204 29.825C9.91258 29.6677 10.052 29.5486 10.22 29.4936C10.4079 29.5079 10.5965 29.4771 10.77 29.4036C11.0485 29.3199 11.3024 29.1696 11.5097 28.9658C11.717 28.7619 11.8716 28.5106 11.96 28.2336C12.3287 27.276 12.5218 26.2597 12.53 25.2336H3.01001C2.28675 25.2653 1.57641 25.0345 1.01001 24.5836C0.713947 24.3376 0.472193 24.0328 0.300057 23.6886C0.12792 23.3443 0.0291512 22.968 0.0100055 22.5836V2.94359C-0.0373285 2.39831 0.0840565 1.85166 0.357723 1.37766C0.631389 0.903667 1.04411 0.525225 1.54001 0.293586C1.98218 0.102975 2.4585 0.0043073 2.94001 0.00358564H30.59C31.2748 -0.0307842 31.9489 0.182842 32.4889 0.605291C33.0289 1.02774 33.3986 1.63069 33.53 2.30359V2.42359L33.58 22.8536ZM32.15 18.2136V3.00359C32.1747 2.60456 32.0401 2.21205 31.7758 1.91211C31.5114 1.61218 31.139 1.4293 30.74 1.40359H2.95001C2.75082 1.39004 2.55093 1.41612 2.3619 1.48033C2.17286 1.54453 1.99844 1.64559 1.84871 1.77764C1.69898 1.9097 1.57693 2.07014 1.48961 2.24967C1.40229 2.4292 1.35144 2.62427 1.34001 2.82359C1.33 2.89658 1.33 2.97059 1.34001 3.04359V18.2136H32.15ZM32.15 19.6536H1.38001V22.6536C1.37008 22.7165 1.37008 22.7806 1.38001 22.8436C1.48217 23.1642 1.6927 23.4394 1.97549 23.6218C2.25829 23.8043 2.59574 23.8827 2.93001 23.8436H30.79C31.1456 23.8437 31.487 23.7045 31.7412 23.4559C31.9954 23.2073 32.1422 22.8691 32.15 22.5136V19.6536ZM20.55 29.4236C20.43 29.1836 20.33 28.9936 20.24 28.8036C19.8319 27.8229 19.6082 26.7754 19.58 25.7136C19.58 25.2436 19.58 25.2436 19.11 25.2436H14.45C13.95 25.2436 13.96 25.2436 13.93 25.7336C13.9069 26.7639 13.6933 27.781 13.3 28.7336C13.2 28.9636 13.09 29.1736 12.97 29.4236H20.55Z" fill="url(#paint0_linear_389_46)"/>
<path d="M18.1601 21.7336C18.1601 22.0105 18.078 22.2812 17.9242 22.5114C17.7703 22.7416 17.5517 22.9211 17.2959 23.0271C17.04 23.133 16.7586 23.1607 16.487 23.1067C16.2154 23.0527 15.966 22.9194 15.7702 22.7236C15.5744 22.5278 15.441 22.2783 15.387 22.0067C15.333 21.7352 15.3607 21.4537 15.4667 21.1979C15.5726 20.942 15.7521 20.7234 15.9823 20.5696C16.2125 20.4157 16.4832 20.3336 16.7601 20.3336V20.3336C17.1314 20.3336 17.4875 20.4811 17.7501 20.7437C18.0126 21.0062 18.1601 21.3623 18.1601 21.7336V21.7336Z" fill="#BF274B"/>
<defs>
<linearGradient id="paint0_linear_389_46" x1="1" y1="16" x2="33" y2="16" gradientUnits="userSpaceOnUse">
<stop stop-color="#5B308E"/>
<stop offset="1" stop-color="#E9232F"/>
</linearGradient>
</defs>
</svg>
