<svg width="30" height="31" viewBox="0 0 30 31" fill="none" xmlns="http://www.w3.org/2000/svg">
<path d="M20.7416 10.89V15.63C20.7416 16.3 20.5316 16.51 19.8816 16.51H0.981602C0.341602 16.51 0.141602 16.3 0.141602 15.66V6.59C0.141602 5.88 0.331602 5.69 1.0616 5.69H12.5816C12.7358 5.70457 12.8909 5.67228 13.0265 5.59735C13.162 5.52242 13.2719 5.40833 13.3416 5.27C14.0316 4.19 14.7616 3.13 15.4616 2.05C15.5588 1.88586 15.694 1.7475 15.8559 1.64656C16.0177 1.54562 16.2014 1.48506 16.3916 1.47C18.5516 1.18 20.7016 0.84 22.8616 0.55C23.4716 0.47 24.1016 0.55 24.7216 0.49C24.8716 0.49 25.0116 0.36 25.1616 0.29C25.3569 0.157568 25.5733 0.059489 25.8016 0L28.6416 0C29.1816 0 29.4216 0.24 29.4416 0.78V8.33C29.4416 9.12 29.2416 9.33 28.4416 9.33H25.9116C25.7334 9.3636 25.5491 9.33406 25.3903 9.24646C25.2315 9.15885 25.1082 9.01867 25.0416 8.85C24.9416 8.6 24.4816 8.61 24.2816 8.85C23.9752 9.21574 23.6913 9.59978 23.4316 10C23.3002 10.218 23.1157 10.3993 22.8954 10.5269C22.6751 10.6546 22.4261 10.7244 22.1716 10.73C21.692 10.7531 21.2144 10.8065 20.7416 10.89V10.89ZM4.6416 7.05C4.49188 7.8423 4.10621 8.57085 3.53516 9.14011C2.96412 9.70937 2.23436 10.0928 1.4416 10.24V11.76C1.45252 11.8134 1.4765 11.8633 1.5114 11.9052C1.5463 11.947 1.59103 11.9796 1.6416 12C2.39226 12.1796 3.07492 12.5726 3.60723 13.1315C4.13954 13.6905 4.49878 14.3915 4.6416 15.15H16.2016C16.3187 14.4877 16.6009 13.8655 17.0221 13.3411C17.4434 12.8168 17.9901 12.4071 18.6116 12.15C18.8716 12.04 19.2316 12.01 19.3616 11.82C19.4916 11.63 19.3616 11.26 19.3616 10.97V9.25C18.9416 9.51 18.6116 9.74 18.2616 9.92C17.9746 10.0931 17.6427 10.177 17.3079 10.1609C16.9732 10.1449 16.6507 10.0297 16.3816 9.83C16.1018 9.65872 15.881 9.40605 15.7487 9.1058C15.6164 8.80556 15.5791 8.47207 15.6416 8.15C15.7412 7.76917 15.8821 7.40033 16.0616 7.05H4.6416ZM14.6416 5.69H17.0216C17.1511 5.7024 17.2817 5.68132 17.4008 5.62879C17.5198 5.57627 17.6234 5.49404 17.7016 5.39C18.1416 4.88 18.5916 4.39 19.0616 3.89C19.1797 3.77214 19.3397 3.70595 19.5066 3.70595C19.6735 3.70595 19.8335 3.77214 19.9516 3.89V3.89C20.0814 3.99579 20.1645 4.14822 20.1832 4.31459C20.2019 4.48097 20.1547 4.64805 20.0516 4.78C19.9701 4.89352 19.8798 5.00051 19.7816 5.1L17.2416 7.93C17.0416 8.14 16.8616 8.37 17.1116 8.65C17.3616 8.93 17.6016 8.8 17.8516 8.65L20.3316 7.07C20.4939 6.96608 20.6794 6.90422 20.8716 6.89H22.0716C22.1583 6.88459 22.2452 6.89634 22.3274 6.9246C22.4095 6.95285 22.4853 6.99705 22.5503 7.05465C22.6154 7.11225 22.6684 7.18213 22.7064 7.26027C22.7443 7.33841 22.7665 7.42327 22.7716 7.51V7.51C22.7716 7.59969 22.7537 7.68848 22.7188 7.7711C22.6838 7.85372 22.6327 7.92849 22.5683 7.99098C22.504 8.05346 22.4278 8.10239 22.3441 8.13486C22.2605 8.16733 22.1713 8.18268 22.0816 8.18V8.18C21.7786 8.16001 21.4746 8.16001 21.1716 8.18C21.0865 8.19656 21.0066 8.23338 20.9387 8.28734C20.8708 8.3413 20.8169 8.41081 20.7816 8.49C20.7516 8.80261 20.7516 9.11739 20.7816 9.43C21.2244 9.51156 21.6817 9.4451 22.0829 9.24087C22.4842 9.03663 22.807 8.70599 23.0016 8.3V8.3C23.1605 7.9378 23.4388 7.641 23.7899 7.45904C24.1411 7.27707 24.5441 7.22094 24.9316 7.3H25.0116V1.91C24.2724 1.86001 23.5308 1.86001 22.7916 1.91C20.8516 2.14 18.9116 2.45 16.9716 2.73C16.7997 2.74108 16.637 2.81181 16.5116 2.93C15.8916 3.82 15.3116 4.72 14.6416 5.69ZM28.0816 8V1.37H26.3816V8H28.0816ZM3.2316 15.18C3.13951 14.7513 2.92679 14.3578 2.61851 14.046C2.31023 13.7342 1.91923 13.517 1.4916 13.42V15.16H1.7516L3.2316 15.18ZM19.3816 13.43C18.9517 13.5071 18.5552 13.7128 18.2446 14.0199C17.934 14.327 17.7237 14.721 17.6416 15.15H19.3716V13.63C19.3851 13.5642 19.3885 13.4968 19.3816 13.43V13.43ZM1.4916 8.77C1.91447 8.69226 2.30329 8.48659 2.60552 8.18078C2.90776 7.87497 3.10884 7.48376 3.1816 7.06H1.4916V8.77Z" fill="url(#paint0_linear_389_44)"/>
<path d="M8.89153 27.5501C9.27153 28.4801 9.23153 28.6101 8.45153 29.0701L5.45153 30.8001C4.88153 31.1301 4.59153 31.0601 4.26153 30.4901C2.9282 28.1701 1.57153 25.8367 0.191534 23.4901C-0.138466 22.9301 -0.0484659 22.6301 0.511534 22.3001L3.51153 20.5401C4.26153 20.1001 4.51153 20.1601 4.93153 20.9001L5.07153 21.1201C5.22591 21.0925 5.37056 21.0256 5.49145 20.9257C5.61234 20.8259 5.70538 20.6965 5.76153 20.5501C5.9588 20.1272 6.27227 19.7691 6.66535 19.5177C7.05843 19.2663 7.51492 19.1318 7.98153 19.1301C8.51312 19.0351 9.06012 19.0771 9.57099 19.252C10.0819 19.427 10.5398 19.7292 10.9015 20.1301C11.0202 20.2155 11.166 20.2546 11.3115 20.2401H14.6415C14.9135 20.2187 15.1863 20.2705 15.4315 20.3901C15.7915 20.6101 16.0315 20.4801 16.3215 20.2901C17.4715 19.5501 18.6215 18.8201 19.7815 18.1001C20.1081 17.885 20.4905 17.7704 20.8815 17.7704C21.2725 17.7704 21.655 17.885 21.9815 18.1001C22.3225 18.2711 22.602 18.5439 22.7811 18.8807C22.9603 19.2175 23.0303 19.6017 22.9815 19.9801C22.9344 20.4291 22.761 20.8555 22.4815 21.2101C20.7415 23.1401 19.0015 25.0001 17.2815 27.0001C17.1722 27.1146 17.0372 27.2015 16.8877 27.2537C16.7382 27.3058 16.5784 27.3217 16.4215 27.3001H9.88153C9.54466 27.3533 9.21331 27.437 8.89153 27.5501V27.5501ZM8.23153 26.5501C8.53717 26.3127 8.88869 26.1413 9.26391 26.0466C9.63912 25.952 10.0299 25.9361 10.4115 26.0001H16.0815C16.2533 26.0005 16.4198 25.9403 16.5515 25.8301C18.1715 24.0701 19.7749 22.3001 21.3615 20.5201C21.5046 20.398 21.5934 20.2241 21.6084 20.0366C21.6234 19.8491 21.5634 19.6633 21.4415 19.5201C21.3121 19.3729 21.1314 19.2806 20.9363 19.262C20.7413 19.2435 20.5464 19.3 20.3915 19.4201L16.7915 21.7001C16.7039 21.7763 16.65 21.8842 16.6415 22.0001C16.6679 22.2509 16.6445 22.5045 16.5728 22.7463C16.5011 22.9881 16.3825 23.2134 16.2237 23.4093C16.0649 23.6053 15.869 23.768 15.6473 23.8882C15.4256 24.0085 15.1824 24.0838 14.9315 24.1101H12.5415C12.0515 24.1101 11.7615 23.8401 11.7615 23.4401C11.7615 23.0401 12.0515 22.7901 12.5415 22.7801H14.5415C14.8715 22.7801 15.1515 22.6801 15.2215 22.3101C15.2915 21.9401 15.0315 21.6301 14.5515 21.6301H10.7015C10.5366 21.6402 10.3725 21.5996 10.2313 21.5138C10.0901 21.428 9.97854 21.3011 9.91153 21.1501C9.79973 20.9482 9.63339 20.7819 9.43153 20.6701C9.10766 20.5119 8.75197 20.4297 8.39153 20.4297C8.0311 20.4297 7.67541 20.5119 7.35153 20.6701C7.22681 20.7277 7.11951 20.8172 7.04049 20.9296C6.96147 21.0419 6.91354 21.1732 6.90153 21.3101C6.83535 21.5502 6.69544 21.7636 6.50153 21.9201C6.27277 22.0784 6.02812 22.2125 5.77153 22.3201L8.23153 26.5501ZM1.64153 23.2601L5.24153 29.4101L7.56153 28.0001L3.96153 21.8601L1.64153 23.2601Z" fill="url(#paint1_linear_389_44)"/>
<path d="M10.4515 7.88996C11.0883 7.89392 11.7097 8.08664 12.237 8.44375C12.7643 8.80085 13.1739 9.3063 13.4139 9.89618C13.654 10.4861 13.7137 11.1339 13.5856 11.7577C13.4575 12.3815 13.1472 12.9534 12.6941 13.4009C12.241 13.8484 11.6654 14.1515 11.04 14.2719C10.4146 14.3922 9.76761 14.3244 9.18076 14.0771C8.59391 13.8297 8.09359 13.4139 7.74306 12.8822C7.39253 12.3505 7.20754 11.7268 7.21149 11.09C7.21411 10.6671 7.29999 10.2489 7.46423 9.85923C7.62848 9.46956 7.86786 9.11606 8.16873 8.81891C8.46959 8.52176 8.82604 8.28678 9.21772 8.12739C9.60939 7.968 10.0286 7.88732 10.4515 7.88996V7.88996ZM10.4515 12.96C10.6957 12.9613 10.9379 12.9145 11.164 12.8222C11.3902 12.7299 11.596 12.594 11.7696 12.4223C11.9433 12.2505 12.0814 12.0462 12.1761 11.821C12.2708 11.5958 12.3202 11.3542 12.3215 11.11V11.11C12.3215 10.614 12.1245 10.1384 11.7738 9.78767C11.4231 9.43697 10.9474 9.23995 10.4515 9.23995C9.95553 9.23995 9.47989 9.43697 9.1292 9.78767C8.7785 10.1384 8.58149 10.614 8.58149 11.11V11.11C8.56801 11.5963 8.74773 12.0682 9.08131 12.4224C9.41489 12.7766 9.87519 12.9843 10.3615 13H10.4415L10.4515 12.96Z" fill="url(#paint2_linear_389_44)"/>
<defs>
<linearGradient id="paint0_linear_389_44" x1="14.7916" y1="0" x2="14.7916" y2="16.51" gradientUnits="userSpaceOnUse">
<stop stop-color="#5B308E"/>
<stop offset="1" stop-color="#E9232F"/>
</linearGradient>
<linearGradient id="paint1_linear_389_44" x1="11.4983" y1="17.7704" x2="11.4983" y2="30.9977" gradientUnits="userSpaceOnUse">
<stop stop-color="#5B308E"/>
<stop offset="1" stop-color="#E9232F"/>
</linearGradient>
<linearGradient id="paint2_linear_389_44" x1="10.4314" y1="7.88989" x2="10.4314" y2="14.3299" gradientUnits="userSpaceOnUse">
<stop stop-color="#5B308E"/>
<stop offset="1" stop-color="#E9232F"/>
</linearGradient>
</defs>
</svg>
