<svg width="37" height="32" viewBox="0 0 37 32" fill="none" xmlns="http://www.w3.org/2000/svg">
<path d="M0.04 12.0589C0.109619 11.8582 0.18973 11.6613 0.28 11.4689C0.542121 10.9613 0.979494 10.566 1.51096 10.3563C2.04243 10.1467 2.6319 10.1369 3.17 10.3289C3.25458 9.56447 3.60918 8.85527 4.17 8.32893C3.70348 7.962 3.35628 7.46494 3.17234 6.90063C2.9884 6.33633 2.97598 5.73014 3.13666 5.15878C3.29733 4.58741 3.62387 4.07654 4.07497 3.69081C4.52607 3.30509 5.08145 3.06183 5.67083 2.99184C6.26022 2.92184 6.85712 3.02824 7.38602 3.29758C7.91492 3.56692 8.35204 3.98709 8.64207 4.50493C8.9321 5.02276 9.06201 5.615 9.01536 6.20669C8.96871 6.79838 8.7476 7.36294 8.38 7.82893C8.31873 7.91013 8.2519 7.98698 8.18 8.05893C9.08334 8.68395 9.8018 9.54057 10.26 10.5389C10.293 10.5886 10.3356 10.631 10.3855 10.6637C10.4353 10.6964 10.4913 10.7186 10.55 10.7289H12.55V10.1889C12.4435 9.07788 12.7194 7.96376 13.3323 7.0309C13.9451 6.09804 14.858 5.40234 15.92 5.05893C15.6414 4.64176 15.4569 4.16902 15.3792 3.67345C15.3015 3.17788 15.3325 2.67134 15.47 2.18893C15.6408 1.53922 16.038 0.971831 16.59 0.58893C17.1311 0.188334 17.7911 -0.0186333 18.4641 0.00131854C19.137 0.0212704 19.7836 0.266981 20.3 0.69893C20.8959 1.24048 21.2803 1.97595 21.3847 2.77439C21.4891 3.57282 21.3067 4.38239 20.87 5.05893C22.003 5.44247 22.9609 6.21947 23.57 7.24893C24.1399 8.29995 24.3704 9.50162 24.23 10.6889H26.23C26.31 10.6889 26.41 10.5989 26.47 10.5189C26.65 10.2389 26.83 9.94893 26.99 9.66893C27.3557 9.00173 27.8947 8.44553 28.55 8.05893C27.39 6.20893 27.55 4.61893 28.9 3.55893C29.4874 3.10768 30.2209 2.88969 30.9594 2.94692C31.6979 3.00415 32.3892 3.33257 32.9 3.86893C33.454 4.46249 33.7503 5.25134 33.724 6.06284C33.6978 6.87433 33.3512 7.64239 32.76 8.19893L32.59 8.33893C33.1508 8.86527 33.5054 9.57447 33.59 10.3389C33.9268 10.2064 34.2904 10.1563 34.6505 10.1928C35.0106 10.2293 35.3567 10.3514 35.66 10.5489C35.9878 10.7498 36.2578 11.0323 36.4436 11.3689C36.6295 11.7055 36.7247 12.0845 36.72 12.4689V21.0589C36.7141 21.9473 36.4177 22.8094 35.8761 23.5136C35.3344 24.2178 34.5772 24.7254 33.72 24.9589C33.6509 24.9704 33.5863 25.0008 33.5333 25.0466C33.4804 25.0925 33.4412 25.1521 33.42 25.2189V29.6089H35.54C36.08 29.6089 36.43 29.8889 36.43 30.3289C36.43 30.7689 36.09 31.0489 35.55 31.0489H27.24C26.6022 31.0844 25.9765 30.8652 25.5002 30.4396C25.0239 30.014 24.7361 29.4167 24.7 28.7789C24.69 28.6792 24.69 28.5787 24.7 28.4789V21.0589C24.5788 20.0908 24.8095 19.1113 25.35 18.2989H22.24V20.3489C22.24 20.5372 22.1652 20.7178 22.032 20.851C21.8989 20.9841 21.7183 21.0589 21.53 21.0589C21.3417 21.0589 21.1611 20.9841 21.028 20.851C20.8948 20.7178 20.82 20.5372 20.82 20.3489V18.2989H19.1V28.8289C19.0999 29.0562 19.1888 29.2746 19.3477 29.4371C19.5066 29.5997 19.7227 29.6937 19.95 29.6989V29.6989C20.0616 29.6989 20.1722 29.6769 20.2753 29.6342C20.3784 29.5915 20.4721 29.5289 20.551 29.45C20.63 29.371 20.6926 29.2773 20.7353 29.1742C20.778 29.0711 20.8 28.9606 20.8 28.8489V26.2889C20.7799 26.1597 20.7799 26.0282 20.8 25.8989C20.8513 25.7445 20.9533 25.6121 21.0895 25.5231C21.2257 25.4341 21.388 25.3939 21.55 25.4089C21.719 25.4236 21.8767 25.5001 21.9929 25.6237C22.1091 25.7473 22.1757 25.9093 22.18 26.0789C22.18 27.0789 22.24 28.0789 22.18 29.1289C22.1339 29.5152 21.9902 29.8833 21.7624 30.1986C21.5346 30.514 21.2303 30.7661 20.8781 30.9312C20.5259 31.0963 20.1374 31.1689 19.7493 31.1423C19.3612 31.1157 18.9864 30.9906 18.66 30.7789L18.33 30.5489C17.8732 30.9383 17.2902 31.1481 16.69 31.1389C16.1001 31.126 15.5385 30.8838 15.124 30.4638C14.7096 30.0438 14.4751 29.4789 14.47 28.8889V18.3489H11.41L11.57 18.6489C11.8987 19.2027 12.0714 19.835 12.07 20.4789V28.6489C12.0726 28.9645 12.0128 29.2774 11.8938 29.5697C11.7749 29.862 11.5993 30.1278 11.3771 30.3519C11.1549 30.5759 10.8905 30.7537 10.5993 30.8751C10.308 30.9965 9.99555 31.0589 9.68 31.0589H1.15C0.956684 31.0786 0.763375 31.0215 0.611821 30.8999C0.460267 30.7783 0.362632 30.6019 0.34 30.4089V30.3389C0.342527 30.2413 0.364619 30.1452 0.404968 30.0562C0.445316 29.9673 0.503101 29.8874 0.574901 29.8211C0.6467 29.7549 0.731054 29.7038 0.822967 29.6708C0.914881 29.6378 1.01248 29.6235 1.11 29.6289H3.32V25.3589C3.32 25.1189 3.25 25.0189 3 24.9489C2.26757 24.7605 1.60355 24.3684 1.08495 23.8179C0.566354 23.2675 0.214432 22.5813 0.0699999 21.8389C0.0559485 21.7565 0.0324608 21.676 0 21.5989V19.4189C0.29 18.9989 0.57 18.8489 0.9 18.9489C1.23 19.0489 1.43 19.3289 1.43 19.8489V21.0589C1.42139 21.7238 1.67078 22.3661 2.12577 22.8509C2.58077 23.3357 3.20596 23.6254 3.87 23.6589H7.13V22.2789H6.97C6.47491 22.2816 5.98416 22.1867 5.52575 21.9996C5.06735 21.8126 4.65027 21.5371 4.29833 21.1889C3.9464 20.8407 3.6665 20.4265 3.47461 19.9701C3.28273 19.5137 3.18262 19.024 3.18 18.5289V18.3589C3.24 16.4489 3.18 14.5389 3.18 12.6289C3.19996 12.5147 3.19689 12.3977 3.17098 12.2847C3.14506 12.1717 3.09683 12.065 3.0291 11.9709C2.96137 11.8768 2.87552 11.7972 2.77659 11.7368C2.67767 11.6763 2.56765 11.6363 2.45302 11.6189C2.33839 11.6016 2.22145 11.6074 2.10908 11.6359C1.99671 11.6644 1.89116 11.715 1.79865 11.7849C1.70614 11.8548 1.62852 11.9424 1.57037 12.0427C1.51221 12.143 1.47469 12.2539 1.46 12.3689C1.45 12.4553 1.45 12.5426 1.46 12.6289V13.9189C1.46822 14.0064 1.45887 14.0947 1.4325 14.1786C1.40613 14.2624 1.36328 14.3402 1.30646 14.4072C1.24964 14.4743 1.17999 14.5294 1.1016 14.5691C1.02322 14.6089 0.937679 14.6327 0.85 14.6389C0.78372 14.6491 0.716279 14.6491 0.65 14.6389C0.418732 14.5392 0.208379 14.3967 0.03 14.2189L0.04 12.0589ZM20.46 6.51893L20.3 6.93893L19.1 10.1889C18.95 10.5989 18.69 10.8189 18.36 10.7989C18.1934 10.7868 18.035 10.7222 17.9074 10.6144C17.7798 10.5066 17.6897 10.3612 17.65 10.1989C17.25 9.05893 16.87 7.98893 16.44 6.87893C16.39 6.74893 16.33 6.62893 16.27 6.47893C15.7447 6.64594 15.2698 6.94224 14.8889 7.34062C14.508 7.739 14.2333 8.2267 14.09 8.75893C13.9917 9.28344 13.9382 9.81535 13.93 10.3489C13.9114 10.4067 13.9044 10.4676 13.9094 10.5281C13.9144 10.5886 13.9313 10.6475 13.9592 10.7014C13.9871 10.7553 14.0254 10.8032 14.0719 10.8422C14.1183 10.8813 14.1721 10.9107 14.23 10.9289V10.9289C14.4401 11.0164 14.6279 11.1496 14.78 11.3189C15.0892 11.6155 15.3065 11.9948 15.4058 12.4115C15.5051 12.8283 15.4823 13.2648 15.34 13.6689H21.34C21.1501 13.118 21.1803 12.5149 21.4244 11.9857C21.6685 11.4565 22.1076 11.0421 22.65 10.8289C22.6894 10.8015 22.7223 10.7658 22.7465 10.7244C22.7707 10.6829 22.7855 10.6367 22.79 10.5889C22.7995 10.0782 22.7794 9.56735 22.73 9.05893C22.6195 8.46871 22.3495 7.92 21.9493 7.47226C21.5492 7.02452 21.0341 6.69484 20.46 6.51893V6.51893ZM4.63 17.7089V18.7089C4.6681 19.2766 4.92082 19.8086 5.33684 20.1967C5.75286 20.5849 6.30101 20.8002 6.87 20.7989H7.87C7.96673 20.7879 8.06469 20.7963 8.15812 20.8236C8.25156 20.851 8.33857 20.8968 8.41405 20.9583C8.48952 21.0198 8.55193 21.0958 8.59761 21.1817C8.64328 21.2677 8.67129 21.362 8.68 21.4589C8.68991 21.5152 8.68991 21.5727 8.68 21.6289V28.6289C8.6607 28.8927 8.74666 29.1534 8.91908 29.3539C9.0915 29.5544 9.33633 29.6785 9.6 29.6989C9.79437 29.7144 9.98902 29.6727 10.16 29.5789C10.3412 29.4722 10.4876 29.3153 10.5816 29.1273C10.6757 28.9392 10.7133 28.7279 10.69 28.5189V20.7189C10.746 20.1465 10.5735 19.5752 10.2101 19.1294C9.84673 18.6837 9.32192 18.3995 8.75 18.3389H8.53C8.39819 18.3319 8.27033 18.2914 8.1584 18.2215C8.04647 18.1515 7.95412 18.0543 7.89 17.9389C7.86062 17.8943 7.82238 17.8562 7.77766 17.8269C7.73293 17.7977 7.68267 17.7779 7.63 17.7689L4.63 17.7089ZM32.08 17.7089H29.15C29.1023 17.7174 29.0574 17.7373 29.0191 17.7669C28.9808 17.7965 28.9502 17.8349 28.93 17.8789C28.8654 17.9931 28.7727 18.0888 28.6607 18.157C28.5486 18.2253 28.4211 18.2638 28.29 18.2689C28.005 18.2689 27.7229 18.3251 27.4596 18.4341C27.1963 18.5432 26.9571 18.703 26.7556 18.9045C26.5541 19.106 26.3942 19.3452 26.2852 19.6085C26.1761 19.8718 26.12 20.154 26.12 20.4389C26.115 20.5122 26.115 20.5857 26.12 20.6589V28.3889C26.11 28.5421 26.11 28.6958 26.12 28.8489C26.12 29.1141 26.2254 29.3685 26.4129 29.556C26.6004 29.7436 26.8548 29.8489 27.12 29.8489C27.3852 29.8489 27.6396 29.7436 27.8271 29.556C28.0146 29.3685 28.12 29.1141 28.12 28.8489C28.13 28.6958 28.13 28.5421 28.12 28.3889V21.7489C28.12 21.0489 28.36 20.8189 29.12 20.7489C29.5575 20.7791 29.9971 20.759 30.43 20.6889C31.0449 20.508 31.563 20.0905 31.8704 19.5281C32.1779 18.9657 32.2497 18.3042 32.07 17.6889L32.08 17.7089ZM27.53 15.1489H9.23V16.7989H27.53V15.1489ZM32.11 16.2389V10.3189C32.0818 9.91991 31.8964 9.54839 31.5946 9.28591C31.2927 9.02343 30.8991 8.89144 30.5 8.91893C30.0857 8.92007 29.6782 9.025 29.3149 9.22414C28.9515 9.42328 28.6439 9.71028 28.42 10.0589C28.1 10.5589 27.79 11.0589 27.51 11.5589C27.4178 11.7398 27.2728 11.8883 27.0942 11.9848C26.9155 12.0813 26.7118 12.1211 26.51 12.0989H23.51C23.4062 12.0893 23.3015 12.1004 23.2019 12.1314C23.1024 12.1625 23.01 12.2129 22.9301 12.2798C22.8501 12.3468 22.7842 12.4289 22.7361 12.5214C22.6881 12.6139 22.6588 12.715 22.65 12.8189V12.8689C22.65 12.9744 22.671 13.0788 22.712 13.1759C22.7529 13.2731 22.8129 13.3611 22.8884 13.4347C22.9639 13.5084 23.0534 13.5661 23.1515 13.6046C23.2497 13.6431 23.3546 13.6616 23.46 13.6589H27.53C27.6047 13.6492 27.6768 13.6248 27.742 13.587C27.8073 13.5492 27.8644 13.4989 27.91 13.4389C28.2 13.0389 28.44 12.6189 28.71 12.2089C28.7525 12.1202 28.8124 12.041 28.8862 11.976C28.9601 11.9111 29.0463 11.8617 29.1397 11.8309C29.2331 11.8001 29.3317 11.7884 29.4298 11.7967C29.5278 11.8049 29.6231 11.8329 29.71 11.8789V11.8789C29.8231 11.9198 29.9243 11.9879 30.0047 12.0773C30.0851 12.1667 30.1422 12.2745 30.1709 12.3913C30.1996 12.508 30.199 12.6301 30.1692 12.7465C30.1394 12.863 30.0813 12.9703 30 13.0589C29.71 13.5289 29.4 13.9989 29.11 14.4789C29.0439 14.5612 28.9962 14.6567 28.97 14.7589V16.3089L32.11 16.2389ZM7.74 16.2389C7.85462 15.8021 7.86454 15.3445 7.76898 14.9031C7.67341 14.4618 7.47504 14.0492 7.19 13.6989C7.05 13.4689 6.9 13.2389 6.75 13.0089C6.62402 12.8604 6.5622 12.6679 6.57814 12.4738C6.59408 12.2797 6.68648 12.0999 6.835 11.9739C6.98352 11.848 7.176 11.7861 7.3701 11.8021C7.5642 11.818 7.74402 11.9104 7.87 12.0589C7.9091 12.1084 7.94264 12.1621 7.97 12.2189C8.23 12.6289 8.49 13.0489 8.76 13.4489C8.78934 13.5016 8.82943 13.5475 8.87767 13.5837C8.92591 13.6199 8.98121 13.6455 9.04 13.6589H13.34C13.5276 13.6514 13.7053 13.5728 13.8372 13.4391C13.969 13.3054 14.0451 13.1266 14.05 12.9389C14.0611 12.752 14.0046 12.5673 13.8908 12.4185C13.7769 12.2698 13.6134 12.167 13.43 12.1289H10.18C9.99038 12.148 9.79949 12.1083 9.63315 12.0153C9.46681 11.9223 9.33306 11.7804 9.25 11.6089C8.96 11.0989 8.65 10.6089 8.34 10.1089C8.00327 9.57066 7.47989 9.17545 6.87 8.99893C6.67964 8.9184 6.47524 8.87626 6.26855 8.87492C6.06186 8.87357 5.85694 8.91306 5.66555 8.9911C5.47415 9.06915 5.30005 9.18422 5.15323 9.32971C5.00642 9.4752 4.88978 9.64825 4.81 9.83893C4.7535 9.97991 4.71649 10.1279 4.7 10.2789C4.62 12.2789 4.7 14.2789 4.7 16.2789L7.74 16.2389ZM29.55 23.6589H32.69C33.0305 23.6589 33.3676 23.5915 33.682 23.4606C33.9963 23.3297 34.2816 23.1379 34.5214 22.8962C34.7613 22.6545 34.9509 22.3677 35.0794 22.0524C35.2079 21.7371 35.2726 21.3994 35.27 21.0589V12.6189C35.2946 12.4209 35.2505 12.2204 35.1449 12.0511C35.0393 11.8818 34.8787 11.7539 34.69 11.6889C34.5836 11.6508 34.4708 11.634 34.3579 11.6395C34.2451 11.645 34.1344 11.6727 34.0322 11.721C33.9301 11.7693 33.8384 11.8372 33.7626 11.9209C33.6867 12.0047 33.628 12.1025 33.59 12.2089C33.5548 12.3433 33.5548 12.4845 33.59 12.6189V18.5189C33.599 19.3723 33.312 20.2024 32.7778 20.8679C32.2435 21.5334 31.4951 21.9932 30.66 22.1689C30.3061 22.2325 29.9488 22.2759 29.59 22.2989L29.55 23.6589ZM15.95 18.2889V28.8889C15.9742 29.0985 16.0738 29.2922 16.2302 29.4338C16.3865 29.5755 16.589 29.6555 16.8 29.6589C17.0101 29.6579 17.2125 29.5801 17.3691 29.44C17.5256 29.3 17.6256 29.1076 17.65 28.8989C17.6602 28.7825 17.6602 28.6654 17.65 28.5489V18.3089L15.95 18.2889ZM7.2 25.1589H4.87V29.6489H7.27C7.27 28.9089 7.21 28.1789 7.2 27.4389C7.19 26.6989 7.2 25.9389 7.2 25.1589ZM29.54 25.1589V27.4089C29.54 28.1489 29.49 28.8889 29.47 29.6389H31.93V25.1389H29.87L29.54 25.1589ZM19.95 3.15893C19.95 2.73989 19.7835 2.33801 19.4872 2.0417C19.1909 1.74539 18.789 1.57893 18.37 1.57893C17.951 1.57893 17.5491 1.74539 17.2528 2.0417C16.9565 2.33801 16.79 2.73989 16.79 3.15893C16.7664 3.36642 16.7838 3.57653 16.8414 3.77727C16.899 3.97801 16.9955 4.16545 17.1255 4.32888C17.388 4.65894 17.771 4.87119 18.19 4.91893C18.609 4.96667 19.0299 4.84599 19.36 4.58344C19.69 4.32089 19.9023 3.93797 19.95 3.51893C19.96 3.39914 19.96 3.27872 19.95 3.15893V3.15893ZM30.73 7.45893C31.0405 7.46286 31.3452 7.37464 31.6055 7.20542C31.8658 7.03619 32.0702 6.79358 32.1926 6.50824C32.3151 6.2229 32.3502 5.90766 32.2935 5.60237C32.2368 5.29709 32.0908 5.01547 31.8741 4.79313C31.6573 4.57079 31.3795 4.41771 31.0758 4.35326C30.772 4.2888 30.456 4.31586 30.1676 4.43101C29.8793 4.54616 29.6315 4.74423 29.4557 5.00017C29.2799 5.25612 29.184 5.55845 29.18 5.86893V5.86893C29.176 6.0738 29.2124 6.27745 29.2872 6.46824C29.3619 6.65904 29.4735 6.83323 29.6156 6.98089C29.7577 7.12854 29.9275 7.24675 30.1152 7.32878C30.303 7.4108 30.5051 7.45503 30.71 7.45893V7.45893H30.73ZM7.56 5.89893C7.56 5.58841 7.46792 5.28487 7.29541 5.02668C7.12289 4.7685 6.87769 4.56727 6.59081 4.44844C6.30393 4.32961 5.98826 4.29852 5.68371 4.3591C5.37916 4.41968 5.09941 4.5692 4.87984 4.78877C4.66027 5.00834 4.51075 5.28809 4.45017 5.59264C4.38959 5.89719 4.42068 6.21286 4.53951 6.49974C4.65834 6.78662 4.85957 7.03182 5.11775 7.20434C5.37594 7.37685 5.67948 7.46893 5.99 7.46893V7.46893C6.40558 7.46631 6.80339 7.30006 7.09726 7.00619C7.39113 6.71232 7.55738 6.31451 7.56 5.89893ZM17.78 6.32893L18.38 7.96893L18.98 6.32893H17.78Z" fill="url(#paint0_linear_389_41)"/>
<path d="M0.0400391 16.559C0.104645 16.3964 0.22081 16.2594 0.370729 16.1691C0.520647 16.0787 0.696046 16.0401 0.870039 16.059C1.02413 16.0776 1.16829 16.1448 1.28158 16.2509C1.39487 16.357 1.47139 16.4965 1.50004 16.649C1.52814 16.7961 1.50834 16.9483 1.44354 17.0833C1.37875 17.2183 1.27237 17.3289 1.14004 17.399C1.00233 17.4722 0.845028 17.5 0.690588 17.4784C0.536147 17.4569 0.392461 17.3871 0.280039 17.279C0.210039 17.209 0.150039 17.129 0.080039 17.049L0.0400391 16.559Z" fill="url(#paint1_linear_389_41)"/>
<path d="M21.4901 23.939C21.3982 23.9364 21.3076 23.9157 21.2237 23.8781C21.1398 23.8405 21.0641 23.7867 21.0009 23.7199C20.9378 23.653 20.8884 23.5744 20.8557 23.4884C20.8229 23.4025 20.8074 23.3109 20.8101 23.219V23.219C20.8181 23.0307 20.9005 22.8532 21.0393 22.7257C21.1781 22.5982 21.3618 22.531 21.5501 22.539C21.7384 22.5469 21.9158 22.6294 22.0434 22.7681C22.1709 22.9069 22.2381 23.0907 22.2301 23.279V23.279C22.2301 23.3713 22.2117 23.4627 22.1757 23.5477C22.1398 23.6328 22.0872 23.7097 22.021 23.7741C21.9548 23.8384 21.8763 23.8888 21.7903 23.9223C21.7043 23.9558 21.6124 23.9716 21.5201 23.969L21.4901 23.939Z" fill="url(#paint2_linear_389_41)"/>
<defs>
<linearGradient id="paint0_linear_389_41" x1="0.499999" y1="17.5" x2="36" y2="16.5" gradientUnits="userSpaceOnUse">
<stop stop-color="#5B308E"/>
<stop offset="1" stop-color="#E9232F"/>
</linearGradient>
<linearGradient id="paint1_linear_389_41" x1="0.0600885" y1="16.8584" x2="1.48387" y2="16.8234" gradientUnits="userSpaceOnUse">
<stop stop-color="#5B308E"/>
<stop offset="1" stop-color="#E9232F"/>
</linearGradient>
<linearGradient id="paint2_linear_389_41" x1="20.8292" y1="23.3423" x2="22.2032" y2="23.3097" gradientUnits="userSpaceOnUse">
<stop stop-color="#5B308E"/>
<stop offset="1" stop-color="#E9232F"/>
</linearGradient>
</defs>
</svg>
